<svg id="Шар_1" data-name="Шар 1" xmlns="http://www.w3.org/2000/svg" viewBox="0 0 634.79 1080"><defs><style>.cls-1{fill:#fff;}.cls-2{fill:#ff9700;}</style></defs><title>Full logo lockup+text_orange+white</title><path class="cls-1" d="M.64,1070v-27.29h11c3.6,0,6,.7,7.33,2.12a6.91,6.91,0,0,1,1.93,4.8,5.94,5.94,0,0,1-4,5.75q5.42,1.86,5.42,7a7.24,7.24,0,0,1-1.43,4.6,6.81,6.81,0,0,1-3.63,2.42,24.39,24.39,0,0,1-6.13.6Zm6.85-16.55h2.65a3.71,3.71,0,0,0,2.6-.84,2.48,2.48,0,0,0,.92-1.87,3.17,3.17,0,0,0-.88-2.39,2.89,2.89,0,0,0-2.09-.85l-.88,0H7.49Zm0,11.29h3.45a3.58,3.58,0,0,0,2.83-1,2.81,2.81,0,0,0,.82-1.84,3.7,3.7,0,0,0-.92-2.43,4.12,4.12,0,0,0-3.31-1.11H7.49Z"/><path class="cls-1" d="M31.75,1070H28.11v-27.29h6.68v16l14-16h3.29V1070H45.37v-15.7Z"/><path class="cls-1" d="M59,1042.72H74.88v6.52H65.8V1070H59Z"/><path class="cls-1" d="M92.34,1042A14.4,14.4,0,0,1,99.6,1044a13.92,13.92,0,0,1,5.31,5.24,14.11,14.11,0,0,1,1.91,7.15,14.33,14.33,0,0,1-1.92,7.23,13.88,13.88,0,0,1-5.23,5.25,14.42,14.42,0,0,1-7.31,1.9,13.64,13.64,0,0,1-10-4.18,14.47,14.47,0,0,1,.54-20.81A13.68,13.68,0,0,1,92.34,1042Zm.11,6.44a7,7,0,0,0-5.31,2.22,7.89,7.89,0,0,0-2.13,5.69,8,8,0,0,0,2.1,5.77,7.53,7.53,0,0,0,10.67,0,8.79,8.79,0,0,0,0-11.45A7.09,7.09,0,0,0,92.45,1048.46Z"/><path class="cls-1" d="M110,1042.72h25.44v6.52h-9.09V1070h-6.84v-20.77H110Z"/><path class="cls-1" d="M152.73,1042A14.46,14.46,0,0,1,160,1044a13.92,13.92,0,0,1,5.31,5.24,14.1,14.1,0,0,1,1.9,7.15,14.33,14.33,0,0,1-1.92,7.23,13.74,13.74,0,0,1-5.23,5.25,14.35,14.35,0,0,1-7.3,1.9,13.64,13.64,0,0,1-10-4.18,14.47,14.47,0,0,1,.54-20.81A13.68,13.68,0,0,1,152.73,1042Zm.11,6.44a7,7,0,0,0-5.31,2.22,7.89,7.89,0,0,0-2.13,5.69,8,8,0,0,0,2.1,5.77,7,7,0,0,0,5.32,2.2,7.1,7.1,0,0,0,5.35-2.23,8.82,8.82,0,0,0,0-11.45A7.09,7.09,0,0,0,152.84,1048.46Z"/><path class="cls-1" d="M172.8,1070v-27.29h11c3.6,0,6,.7,7.33,2.12a6.91,6.91,0,0,1,1.93,4.8,5.94,5.94,0,0,1-4,5.75q5.41,1.86,5.42,7a7.24,7.24,0,0,1-1.43,4.6,6.85,6.85,0,0,1-3.63,2.42,24.39,24.39,0,0,1-6.13.6Zm6.85-16.55h2.64a3.72,3.72,0,0,0,2.61-.84,2.52,2.52,0,0,0,.92-1.87,3.17,3.17,0,0,0-.88-2.39,2.91,2.91,0,0,0-2.09-.85l-.88,0h-2.32Zm0,11.29h3.45a3.6,3.6,0,0,0,2.83-1,2.81,2.81,0,0,0,.82-1.84,3.7,3.7,0,0,0-.92-2.43,4.12,4.12,0,0,0-3.31-1.11h-2.87Z"/><path class="cls-1" d="M224.69,1070h-7l-6.83-17.21L203.93,1070h-7l11.64-27.29H213Z"/><path class="cls-1" d="M255.64,1058.35h-22a7.35,7.35,0,0,0,2.55,4.63,8,8,0,0,0,5.28,1.72,9.11,9.11,0,0,0,6.59-2.69l5.77,2.71a13.61,13.61,0,0,1-5.16,4.53,16.15,16.15,0,0,1-7.15,1.47,14.15,14.15,0,0,1-10.47-4,13.82,13.82,0,0,1-4-10.15,14.27,14.27,0,0,1,4-10.38,13.53,13.53,0,0,1,10.1-4.12,14,14,0,0,1,10.49,4.12q4,4.13,4,10.9Zm-6.85-5.4a6.85,6.85,0,0,0-2.67-3.71,7.81,7.81,0,0,0-4.64-1.43,8.21,8.21,0,0,0-5,1.61,9,9,0,0,0-2.51,3.53Z"/><path class="cls-1" d="M268,1052.55h10.24v-9.83h6.85V1070h-6.85V1058.7H268V1070h-6.85v-27.29H268Z"/><path class="cls-1" d="M298.84,1052.55h10.24v-9.83h6.85V1070h-6.85V1058.7H298.84V1070H292v-27.29h6.85Z"/><path class="cls-1" d="M327.51,1058.82a7.09,7.09,0,0,1-3.64-2.75,7.75,7.75,0,0,1-1.42-4.55,8.59,8.59,0,0,1,1.73-5.32,7.43,7.43,0,0,1,4.13-2.88,33.73,33.73,0,0,1,7.49-.6h6.92V1070h-6.85v-9.88h-1.33L328,1070h-8.11Zm8.36-3.83v-6.55h-2.39q-3.9,0-3.9,3.26t4.35,3.29Z"/><path class="cls-1" d="M390.72,1048.24l-5.7,3.13a9.8,9.8,0,0,0-3.18-2.33,9.64,9.64,0,0,0-3.68-.65,8.57,8.57,0,0,0-6.22,2.29,7.82,7.82,0,0,0-2.37,5.87,7.56,7.56,0,0,0,2.28,5.69,8.3,8.3,0,0,0,6,2.2,8.74,8.74,0,0,0,7.16-3.13l5.4,3.7q-4.4,5.7-12.4,5.71-7.2,0-11.27-4.27a14.19,14.19,0,0,1,3.43-22.53,16.55,16.55,0,0,1,7.94-1.9,16.05,16.05,0,0,1,7.3,1.61A13.87,13.87,0,0,1,390.72,1048.24Z"/><path class="cls-1" d="M403.71,1070h-6.84v-27.29H420.8V1070H414v-20.69H403.71Z"/><path class="cls-1" d="M455.07,1058.35h-22a7.34,7.34,0,0,0,2.54,4.63,8,8,0,0,0,5.28,1.72,9.14,9.14,0,0,0,6.6-2.69l5.77,2.71a13.61,13.61,0,0,1-5.16,4.53,16.18,16.18,0,0,1-7.15,1.47,14.15,14.15,0,0,1-10.47-4,13.83,13.83,0,0,1-4-10.15,14.28,14.28,0,0,1,4-10.38,13.53,13.53,0,0,1,10.1-4.12,14,14,0,0,1,10.49,4.12q4,4.13,4,10.9Zm-6.85-5.4a6.81,6.81,0,0,0-2.68-3.71,7.76,7.76,0,0,0-4.63-1.43,8.21,8.21,0,0,0-5,1.61,9,9,0,0,0-2.51,3.53Z"/><path class="cls-1" d="M460.59,1070v-27.29h6.85v20.72h10.23v-20.72h6.85v20.72h7v11.37H485V1070Z"/><path class="cls-1" d="M508.06,1042a14.46,14.46,0,0,1,7.26,1.93,14.12,14.12,0,0,1,7.21,12.39,14.33,14.33,0,0,1-1.92,7.23,13.81,13.81,0,0,1-5.23,5.25,14.35,14.35,0,0,1-7.3,1.9,13.64,13.64,0,0,1-10-4.18,14.47,14.47,0,0,1,.54-20.81A13.67,13.67,0,0,1,508.06,1042Zm.11,6.44a7.06,7.06,0,0,0-5.32,2.22,7.92,7.92,0,0,0-2.12,5.69,8,8,0,0,0,2.1,5.77,7,7,0,0,0,5.31,2.2,7.11,7.11,0,0,0,5.36-2.23,8.82,8.82,0,0,0,0-11.45A7.09,7.09,0,0,0,508.17,1048.46Z"/><path class="cls-1" d="M531.67,1070v4.75h-6.1v-10.54h4.11l9.42-21.5h4.42l9.55,21.5h4.19v10.54h-6.53V1070Zm14.12-5.79-4.48-11.51-4.63,11.51Z"/><path class="cls-1" d="M566.22,1058.82a7.1,7.1,0,0,1-3.63-2.75,7.68,7.68,0,0,1-1.42-4.55,8.59,8.59,0,0,1,1.73-5.32,7.39,7.39,0,0,1,4.13-2.88,33.67,33.67,0,0,1,7.49-.6h6.92V1070h-6.85v-9.88h-1.33l-6.52,9.88h-8.11Zm8.37-3.83v-6.55H572.2c-2.6,0-3.91,1.09-3.91,3.26s1.46,3.29,4.36,3.29Z"/><path class="cls-1" d="M588.31,1042.72h15.94v6.52h-9.09V1070h-6.85Z"/><path class="cls-1" d="M605.86,1042.72h7l7.09,17.13,7.82-17.13h7L617.7,1080h-7.08l5.61-12Z"/><path class="cls-1" d="M343.57,445.69a72.15,72.15,0,0,1-144.29,1.7c0-.58,0-1.13,0-1.7a72.17,72.17,0,0,1,72.16-72.17c1.13,0,2.29,0,3.41.11A72.14,72.14,0,0,1,343.57,445.69Z"/><path class="cls-1" d="M622.06,559H549.19v.07a300,300,0,0,1-56.86,89.48c-.34.31-.62.61-.92.92a248.86,248.86,0,0,1-330.1,19.4A249,249,0,0,0,493,559a242.68,242.68,0,0,0,15.57-37.76,247.94,247.94,0,0,0,8.87-37.81,255.11,255.11,0,0,0,2.83-37.76,296,296,0,0,0,23.14,37.76A279,279,0,0,0,562,506.84c.78,1,1.63,1.87,2.48,2.79,3.58,4,7.3,7.84,11.08,11.63A297,297,0,0,0,622.06,559Z"/><path class="cls-2" d="M475.93,445.69A204.47,204.47,0,0,1,271.41,650.21c-109.28,0-198.55-85.7-204.21-193.58v-.07c-.17-3-.27-6.1-.27-9.17,0-.58,0-1.13,0-1.7v-222H7.34a296.67,296.67,0,0,0,59.55-51A298.19,298.19,0,0,0,142.43,0h0V445.69A129,129,0,1,0,274.82,316.77c-1.16,0-2.28,0-3.41,0a128.37,128.37,0,0,0-72.16,22.06V169a71.94,71.94,0,0,0,9.51,35.83h0a71.93,71.93,0,0,0,62.62,36.33c1.13,0,2.29,0,3.41,0C386.22,243,475.93,333.85,475.93,445.69Z"/><path class="cls-1" d="M607.6,837a25.14,25.14,0,0,1-24.81-24.81,24.32,24.32,0,0,1,7.36-17.58,24.05,24.05,0,0,1,34.9,0,24.32,24.32,0,0,1,7.36,17.58A25.14,25.14,0,0,1,607.6,837Z"/><path class="cls-1" d="M443.11,972.09l-4.79-14.29H346.19a50.61,50.61,0,0,1-15.82-2.32,27.55,27.55,0,0,1-11.72-7.22,25.45,25.45,0,0,1-6.27-12H404a70.91,70.91,0,0,0,1-7.49c.27-3.18.41-6,.41-8.32q0-20.44-7.64-36.39a59.17,59.17,0,0,0-22.49-25.21q-14.85-9.27-36.93-9.27a71.39,71.39,0,0,0-35.3,8.86,66.56,66.56,0,0,0-25.49,25.21Q268,900,268,922.9q0,20.73,9.95,36.39t27.94,24.54q18,8.86,41.71,8.86H457.7A43.88,43.88,0,0,1,443.11,972.09Zm-129.23-72a26.47,26.47,0,0,1,5.05-8.45,23.57,23.57,0,0,1,8.17-5.86,29.66,29.66,0,0,1,20-.82,24.35,24.35,0,0,1,6.95,3.68,27.51,27.51,0,0,1,5.31,5.46,21.12,21.12,0,0,1,3.41,7.22,63.77,63.77,0,0,1,1.64,8.45H311.29A53.09,53.09,0,0,1,313.88,900.14Z"/><path class="cls-2" d="M184.81,860.48q-10.91,10.9-10.9,30V992.69h42.25v-99.5a8.81,8.81,0,0,1,2.73-6.68,9.16,9.16,0,0,1,6.54-2.59h39.15c1-2,2-4.06,3.1-6a78.16,78.16,0,0,1,28-28.35H215.07Q195.72,849.58,184.81,860.48Z"/><path class="cls-2" d="M493.93,949.35a2.88,2.88,0,0,1-1,1.63,2.7,2.7,0,0,1-1.77.55,2.32,2.32,0,0,1-1.5-.55,4.82,4.82,0,0,1-1.22-1.63L460.4,849.58H414.06l39.8,118.85A33.09,33.09,0,0,0,468,986.14a43.53,43.53,0,0,0,45.93,0,33.27,33.27,0,0,0,14-17.71l39.8-118.85H522.55Z"/><rect class="cls-2" x="586.34" y="849.58" width="42.53" height="143.11"/><path class="cls-2" d="M117.76,858.57q-15-9-34.89-9a56.61,56.61,0,0,0-16,2.18,47.27,47.27,0,0,0-13.63,6.4,41.2,41.2,0,0,0-10.22,10h-.82V772.6L0,814.85V920.18q0,22.89,9.27,40.07a64.23,64.23,0,0,0,26.17,26.44Q52.33,996,75,996q17.72,0,31.49-5.45a64.56,64.56,0,0,0,23.44-15.68,70.45,70.45,0,0,0,14.86-24.12,86.11,86.11,0,0,0,5.18-30.26q0-21.26-8.59-37.07A64,64,0,0,0,117.76,858.57Zm-14.86,83a31.8,31.8,0,0,1-11,13.08A29.56,29.56,0,0,1,75,959.43a30.17,30.17,0,0,1-17-4.77,30.61,30.61,0,0,1-11-13.08,44.33,44.33,0,0,1-3.81-18.68,43.38,43.38,0,0,1,3.81-18.53,30.78,30.78,0,0,1,11-13,30.17,30.17,0,0,1,17-4.77,29.56,29.56,0,0,1,16.9,4.77,32,32,0,0,1,11,13,42,42,0,0,1,4,18.53A42.89,42.89,0,0,1,102.9,941.58Z"/></svg>